<?xml version="1.0" encoding="UTF-8"?>
<!DOCTYPE svg PUBLIC "-//W3C//DTD SVG 1.1//EN" "http://www.w3.org/Graphics/SVG/1.1/DTD/svg11.dtd">
<svg width="160mm" height="90mm" viewBox="0 0 16000 9000" version="1.1" xmlns="http://www.w3.org/2000/svg" xmlns:xlink="http://www.w3.org/1999/xlink" stroke-width="28.222" stroke-linejoin="round" xml:space="preserve">
 <path fill="rgb(255,255,255)" stroke="none" d="M 7987,8986 L -13,8986 -13,-13 15986,-13 15986,8986 7987,8986 Z "/>
 <path fill="none" stroke="rgb(179,179,179)" stroke-linejoin="round" d="M 7862,7790 L 740,7790 740,2297 14984,2297 14984,7790 7862,7790 Z "/>
 <path fill="none" stroke="rgb(179,179,179)" stroke-linejoin="round" d="M 14984,7789 L 740,7789 "/>
 <path fill="none" stroke="rgb(179,179,179)" stroke-linejoin="round" d="M 14984,7102 L 740,7102 "/>
 <path fill="none" stroke="rgb(179,179,179)" stroke-linejoin="round" d="M 14984,6415 L 740,6415 "/>
 <path fill="none" stroke="rgb(179,179,179)" stroke-linejoin="round" d="M 14984,5728 L 740,5728 "/>
 <path fill="none" stroke="rgb(179,179,179)" stroke-linejoin="round" d="M 14984,5042 L 740,5042 "/>
 <path fill="none" stroke="rgb(179,179,179)" stroke-linejoin="round" d="M 14984,4356 L 740,4356 "/>
 <path fill="none" stroke="rgb(179,179,179)" stroke-linejoin="round" d="M 14984,3669 L 740,3669 "/>
 <path fill="none" stroke="rgb(179,179,179)" stroke-linejoin="round" d="M 14984,2982 L 740,2982 "/>
 <path fill="none" stroke="rgb(179,179,179)" stroke-linejoin="round" d="M 14984,2296 L 740,2296 "/>
 <path fill="none" stroke="rgb(179,179,179)" stroke-linejoin="round" d="M 14984,7939 L 14984,7789 "/>
 <path fill="none" stroke="rgb(179,179,179)" stroke-linejoin="round" d="M 14984,7939 L 14984,7789 "/>
 <path fill="none" stroke="rgb(179,179,179)" stroke-linejoin="round" d="M 14788,7939 L 14788,7789 "/>
 <path fill="none" stroke="rgb(179,179,179)" stroke-linejoin="round" d="M 14788,7939 L 14788,7789 "/>
 <path fill="none" stroke="rgb(179,179,179)" stroke-linejoin="round" d="M 14593,7939 L 14593,7789 "/>
 <path fill="none" stroke="rgb(179,179,179)" stroke-linejoin="round" d="M 14593,7939 L 14593,7789 "/>
 <path fill="none" stroke="rgb(179,179,179)" stroke-linejoin="round" d="M 14398,7939 L 14398,7789 "/>
 <path fill="none" stroke="rgb(179,179,179)" stroke-linejoin="round" d="M 14398,7939 L 14398,7789 "/>
 <path fill="none" stroke="rgb(179,179,179)" stroke-linejoin="round" d="M 14203,7939 L 14203,7789 "/>
 <path fill="none" stroke="rgb(179,179,179)" stroke-linejoin="round" d="M 14203,7939 L 14203,7789 "/>
 <path fill="none" stroke="rgb(179,179,179)" stroke-linejoin="round" d="M 14008,7939 L 14008,7789 "/>
 <path fill="none" stroke="rgb(179,179,179)" stroke-linejoin="round" d="M 14008,7939 L 14008,7789 "/>
 <path fill="none" stroke="rgb(179,179,179)" stroke-linejoin="round" d="M 13813,7939 L 13813,7789 "/>
 <path fill="none" stroke="rgb(179,179,179)" stroke-linejoin="round" d="M 13813,7939 L 13813,7789 "/>
 <path fill="none" stroke="rgb(179,179,179)" stroke-linejoin="round" d="M 13618,7939 L 13618,7789 "/>
 <path fill="none" stroke="rgb(179,179,179)" stroke-linejoin="round" d="M 13618,7939 L 13618,7789 "/>
 <path fill="none" stroke="rgb(179,179,179)" stroke-linejoin="round" d="M 13422,7939 L 13422,7789 "/>
 <path fill="none" stroke="rgb(179,179,179)" stroke-linejoin="round" d="M 13422,7939 L 13422,7789 "/>
 <path fill="none" stroke="rgb(179,179,179)" stroke-linejoin="round" d="M 13227,7939 L 13227,7789 "/>
 <path fill="none" stroke="rgb(179,179,179)" stroke-linejoin="round" d="M 13227,7939 L 13227,7789 "/>
 <path fill="none" stroke="rgb(179,179,179)" stroke-linejoin="round" d="M 13032,7939 L 13032,7789 "/>
 <path fill="none" stroke="rgb(179,179,179)" stroke-linejoin="round" d="M 13032,7939 L 13032,7789 "/>
 <path fill="none" stroke="rgb(179,179,179)" stroke-linejoin="round" d="M 12837,7939 L 12837,7789 "/>
 <path fill="none" stroke="rgb(179,179,179)" stroke-linejoin="round" d="M 12837,7939 L 12837,7789 "/>
 <path fill="none" stroke="rgb(179,179,179)" stroke-linejoin="round" d="M 12642,7939 L 12642,7789 "/>
 <path fill="none" stroke="rgb(179,179,179)" stroke-linejoin="round" d="M 12642,7939 L 12642,7789 "/>
 <path fill="none" stroke="rgb(179,179,179)" stroke-linejoin="round" d="M 12447,7939 L 12447,7789 "/>
 <path fill="none" stroke="rgb(179,179,179)" stroke-linejoin="round" d="M 12447,7939 L 12447,7789 "/>
 <path fill="none" stroke="rgb(179,179,179)" stroke-linejoin="round" d="M 12252,7939 L 12252,7789 "/>
 <path fill="none" stroke="rgb(179,179,179)" stroke-linejoin="round" d="M 12252,7939 L 12252,7789 "/>
 <path fill="none" stroke="rgb(179,179,179)" stroke-linejoin="round" d="M 12056,7939 L 12056,7789 "/>
 <path fill="none" stroke="rgb(179,179,179)" stroke-linejoin="round" d="M 12056,7939 L 12056,7789 "/>
 <path fill="none" stroke="rgb(179,179,179)" stroke-linejoin="round" d="M 11861,7939 L 11861,7789 "/>
 <path fill="none" stroke="rgb(179,179,179)" stroke-linejoin="round" d="M 11861,7939 L 11861,7789 "/>
 <path fill="none" stroke="rgb(179,179,179)" stroke-linejoin="round" d="M 11666,7939 L 11666,7789 "/>
 <path fill="none" stroke="rgb(179,179,179)" stroke-linejoin="round" d="M 11666,7939 L 11666,7789 "/>
 <path fill="none" stroke="rgb(179,179,179)" stroke-linejoin="round" d="M 11471,7939 L 11471,7789 "/>
 <path fill="none" stroke="rgb(179,179,179)" stroke-linejoin="round" d="M 11471,7939 L 11471,7789 "/>
 <path fill="none" stroke="rgb(179,179,179)" stroke-linejoin="round" d="M 11276,7939 L 11276,7789 "/>
 <path fill="none" stroke="rgb(179,179,179)" stroke-linejoin="round" d="M 11276,7939 L 11276,7789 "/>
 <path fill="none" stroke="rgb(179,179,179)" stroke-linejoin="round" d="M 11081,7939 L 11081,7789 "/>
 <path fill="none" stroke="rgb(179,179,179)" stroke-linejoin="round" d="M 11081,7939 L 11081,7789 "/>
 <path fill="none" stroke="rgb(179,179,179)" stroke-linejoin="round" d="M 10886,7939 L 10886,7789 "/>
 <path fill="none" stroke="rgb(179,179,179)" stroke-linejoin="round" d="M 10886,7939 L 10886,7789 "/>
 <path fill="none" stroke="rgb(179,179,179)" stroke-linejoin="round" d="M 10690,7939 L 10690,7789 "/>
 <path fill="none" stroke="rgb(179,179,179)" stroke-linejoin="round" d="M 10690,7939 L 10690,7789 "/>
 <path fill="none" stroke="rgb(179,179,179)" stroke-linejoin="round" d="M 10495,7939 L 10495,7789 "/>
 <path fill="none" stroke="rgb(179,179,179)" stroke-linejoin="round" d="M 10495,7939 L 10495,7789 "/>
 <path fill="none" stroke="rgb(179,179,179)" stroke-linejoin="round" d="M 10300,7939 L 10300,7789 "/>
 <path fill="none" stroke="rgb(179,179,179)" stroke-linejoin="round" d="M 10300,7939 L 10300,7789 "/>
 <path fill="none" stroke="rgb(179,179,179)" stroke-linejoin="round" d="M 10105,7939 L 10105,7789 "/>
 <path fill="none" stroke="rgb(179,179,179)" stroke-linejoin="round" d="M 10105,7939 L 10105,7789 "/>
 <path fill="none" stroke="rgb(179,179,179)" stroke-linejoin="round" d="M 9910,7939 L 9910,7789 "/>
 <path fill="none" stroke="rgb(179,179,179)" stroke-linejoin="round" d="M 9910,7939 L 9910,7789 "/>
 <path fill="none" stroke="rgb(179,179,179)" stroke-linejoin="round" d="M 9715,7939 L 9715,7789 "/>
 <path fill="none" stroke="rgb(179,179,179)" stroke-linejoin="round" d="M 9715,7939 L 9715,7789 "/>
 <path fill="none" stroke="rgb(179,179,179)" stroke-linejoin="round" d="M 9520,7939 L 9520,7789 "/>
 <path fill="none" stroke="rgb(179,179,179)" stroke-linejoin="round" d="M 9520,7939 L 9520,7789 "/>
 <path fill="none" stroke="rgb(179,179,179)" stroke-linejoin="round" d="M 9325,7939 L 9325,7789 "/>
 <path fill="none" stroke="rgb(179,179,179)" stroke-linejoin="round" d="M 9325,7939 L 9325,7789 "/>
 <path fill="none" stroke="rgb(179,179,179)" stroke-linejoin="round" d="M 9129,7939 L 9129,7789 "/>
 <path fill="none" stroke="rgb(179,179,179)" stroke-linejoin="round" d="M 9129,7939 L 9129,7789 "/>
 <path fill="none" stroke="rgb(179,179,179)" stroke-linejoin="round" d="M 8934,7939 L 8934,7789 "/>
 <path fill="none" stroke="rgb(179,179,179)" stroke-linejoin="round" d="M 8934,7939 L 8934,7789 "/>
 <path fill="none" stroke="rgb(179,179,179)" stroke-linejoin="round" d="M 8739,7939 L 8739,7789 "/>
 <path fill="none" stroke="rgb(179,179,179)" stroke-linejoin="round" d="M 8739,7939 L 8739,7789 "/>
 <path fill="none" stroke="rgb(179,179,179)" stroke-linejoin="round" d="M 8544,7939 L 8544,7789 "/>
 <path fill="none" stroke="rgb(179,179,179)" stroke-linejoin="round" d="M 8544,7939 L 8544,7789 "/>
 <path fill="none" stroke="rgb(179,179,179)" stroke-linejoin="round" d="M 8349,7939 L 8349,7789 "/>
 <path fill="none" stroke="rgb(179,179,179)" stroke-linejoin="round" d="M 8349,7939 L 8349,7789 "/>
 <path fill="none" stroke="rgb(179,179,179)" stroke-linejoin="round" d="M 8154,7939 L 8154,7789 "/>
 <path fill="none" stroke="rgb(179,179,179)" stroke-linejoin="round" d="M 8154,7939 L 8154,7789 "/>
 <path fill="none" stroke="rgb(179,179,179)" stroke-linejoin="round" d="M 7960,7939 L 7960,7789 "/>
 <path fill="none" stroke="rgb(179,179,179)" stroke-linejoin="round" d="M 7960,7939 L 7960,7789 "/>
 <path fill="none" stroke="rgb(179,179,179)" stroke-linejoin="round" d="M 7764,7939 L 7764,7789 "/>
 <path fill="none" stroke="rgb(179,179,179)" stroke-linejoin="round" d="M 7764,7939 L 7764,7789 "/>
 <path fill="none" stroke="rgb(179,179,179)" stroke-linejoin="round" d="M 7569,7939 L 7569,7789 "/>
 <path fill="none" stroke="rgb(179,179,179)" stroke-linejoin="round" d="M 7569,7939 L 7569,7789 "/>
 <path fill="none" stroke="rgb(179,179,179)" stroke-linejoin="round" d="M 7374,7939 L 7374,7789 "/>
 <path fill="none" stroke="rgb(179,179,179)" stroke-linejoin="round" d="M 7374,7939 L 7374,7789 "/>
 <path fill="none" stroke="rgb(179,179,179)" stroke-linejoin="round" d="M 7179,7939 L 7179,7789 "/>
 <path fill="none" stroke="rgb(179,179,179)" stroke-linejoin="round" d="M 7179,7939 L 7179,7789 "/>
 <path fill="none" stroke="rgb(179,179,179)" stroke-linejoin="round" d="M 6984,7939 L 6984,7789 "/>
 <path fill="none" stroke="rgb(179,179,179)" stroke-linejoin="round" d="M 6984,7939 L 6984,7789 "/>
 <path fill="none" stroke="rgb(179,179,179)" stroke-linejoin="round" d="M 6789,7939 L 6789,7789 "/>
 <path fill="none" stroke="rgb(179,179,179)" stroke-linejoin="round" d="M 6789,7939 L 6789,7789 "/>
 <path fill="none" stroke="rgb(179,179,179)" stroke-linejoin="round" d="M 6594,7939 L 6594,7789 "/>
 <path fill="none" stroke="rgb(179,179,179)" stroke-linejoin="round" d="M 6594,7939 L 6594,7789 "/>
 <path fill="none" stroke="rgb(179,179,179)" stroke-linejoin="round" d="M 6398,7939 L 6398,7789 "/>
 <path fill="none" stroke="rgb(179,179,179)" stroke-linejoin="round" d="M 6398,7939 L 6398,7789 "/>
 <path fill="none" stroke="rgb(179,179,179)" stroke-linejoin="round" d="M 6203,7939 L 6203,7789 "/>
 <path fill="none" stroke="rgb(179,179,179)" stroke-linejoin="round" d="M 6203,7939 L 6203,7789 "/>
 <path fill="none" stroke="rgb(179,179,179)" stroke-linejoin="round" d="M 6008,7939 L 6008,7789 "/>
 <path fill="none" stroke="rgb(179,179,179)" stroke-linejoin="round" d="M 6008,7939 L 6008,7789 "/>
 <path fill="none" stroke="rgb(179,179,179)" stroke-linejoin="round" d="M 5813,7939 L 5813,7789 "/>
 <path fill="none" stroke="rgb(179,179,179)" stroke-linejoin="round" d="M 5813,7939 L 5813,7789 "/>
 <path fill="none" stroke="rgb(179,179,179)" stroke-linejoin="round" d="M 5618,7939 L 5618,7789 "/>
 <path fill="none" stroke="rgb(179,179,179)" stroke-linejoin="round" d="M 5618,7939 L 5618,7789 "/>
 <path fill="none" stroke="rgb(179,179,179)" stroke-linejoin="round" d="M 5423,7939 L 5423,7789 "/>
 <path fill="none" stroke="rgb(179,179,179)" stroke-linejoin="round" d="M 5423,7939 L 5423,7789 "/>
 <path fill="none" stroke="rgb(179,179,179)" stroke-linejoin="round" d="M 5228,7939 L 5228,7789 "/>
 <path fill="none" stroke="rgb(179,179,179)" stroke-linejoin="round" d="M 5228,7939 L 5228,7789 "/>
 <path fill="none" stroke="rgb(179,179,179)" stroke-linejoin="round" d="M 5033,7939 L 5033,7789 "/>
 <path fill="none" stroke="rgb(179,179,179)" stroke-linejoin="round" d="M 5033,7939 L 5033,7789 "/>
 <path fill="none" stroke="rgb(179,179,179)" stroke-linejoin="round" d="M 4837,7939 L 4837,7789 "/>
 <path fill="none" stroke="rgb(179,179,179)" stroke-linejoin="round" d="M 4837,7939 L 4837,7789 "/>
 <path fill="none" stroke="rgb(179,179,179)" stroke-linejoin="round" d="M 4642,7939 L 4642,7789 "/>
 <path fill="none" stroke="rgb(179,179,179)" stroke-linejoin="round" d="M 4642,7939 L 4642,7789 "/>
 <path fill="none" stroke="rgb(179,179,179)" stroke-linejoin="round" d="M 4447,7939 L 4447,7789 "/>
 <path fill="none" stroke="rgb(179,179,179)" stroke-linejoin="round" d="M 4447,7939 L 4447,7789 "/>
 <path fill="none" stroke="rgb(179,179,179)" stroke-linejoin="round" d="M 4252,7939 L 4252,7789 "/>
 <path fill="none" stroke="rgb(179,179,179)" stroke-linejoin="round" d="M 4252,7939 L 4252,7789 "/>
 <path fill="none" stroke="rgb(179,179,179)" stroke-linejoin="round" d="M 4057,7939 L 4057,7789 "/>
 <path fill="none" stroke="rgb(179,179,179)" stroke-linejoin="round" d="M 4057,7939 L 4057,7789 "/>
 <path fill="none" stroke="rgb(179,179,179)" stroke-linejoin="round" d="M 3862,7939 L 3862,7789 "/>
 <path fill="none" stroke="rgb(179,179,179)" stroke-linejoin="round" d="M 3862,7939 L 3862,7789 "/>
 <path fill="none" stroke="rgb(179,179,179)" stroke-linejoin="round" d="M 3667,7939 L 3667,7789 "/>
 <path fill="none" stroke="rgb(179,179,179)" stroke-linejoin="round" d="M 3667,7939 L 3667,7789 "/>
 <path fill="none" stroke="rgb(179,179,179)" stroke-linejoin="round" d="M 3471,7939 L 3471,7789 "/>
 <path fill="none" stroke="rgb(179,179,179)" stroke-linejoin="round" d="M 3471,7939 L 3471,7789 "/>
 <path fill="none" stroke="rgb(179,179,179)" stroke-linejoin="round" d="M 3276,7939 L 3276,7789 "/>
 <path fill="none" stroke="rgb(179,179,179)" stroke-linejoin="round" d="M 3276,7939 L 3276,7789 "/>
 <path fill="none" stroke="rgb(179,179,179)" stroke-linejoin="round" d="M 3081,7939 L 3081,7789 "/>
 <path fill="none" stroke="rgb(179,179,179)" stroke-linejoin="round" d="M 3081,7939 L 3081,7789 "/>
 <path fill="none" stroke="rgb(179,179,179)" stroke-linejoin="round" d="M 2886,7939 L 2886,7789 "/>
 <path fill="none" stroke="rgb(179,179,179)" stroke-linejoin="round" d="M 2886,7939 L 2886,7789 "/>
 <path fill="none" stroke="rgb(179,179,179)" stroke-linejoin="round" d="M 2691,7939 L 2691,7789 "/>
 <path fill="none" stroke="rgb(179,179,179)" stroke-linejoin="round" d="M 2691,7939 L 2691,7789 "/>
 <path fill="none" stroke="rgb(179,179,179)" stroke-linejoin="round" d="M 2496,7939 L 2496,7789 "/>
 <path fill="none" stroke="rgb(179,179,179)" stroke-linejoin="round" d="M 2496,7939 L 2496,7789 "/>
 <path fill="none" stroke="rgb(179,179,179)" stroke-linejoin="round" d="M 2301,7939 L 2301,7789 "/>
 <path fill="none" stroke="rgb(179,179,179)" stroke-linejoin="round" d="M 2301,7939 L 2301,7789 "/>
 <path fill="none" stroke="rgb(179,179,179)" stroke-linejoin="round" d="M 2105,7939 L 2105,7789 "/>
 <path fill="none" stroke="rgb(179,179,179)" stroke-linejoin="round" d="M 2105,7939 L 2105,7789 "/>
 <path fill="none" stroke="rgb(179,179,179)" stroke-linejoin="round" d="M 1910,7939 L 1910,7789 "/>
 <path fill="none" stroke="rgb(179,179,179)" stroke-linejoin="round" d="M 1910,7939 L 1910,7789 "/>
 <path fill="none" stroke="rgb(179,179,179)" stroke-linejoin="round" d="M 1715,7939 L 1715,7789 "/>
 <path fill="none" stroke="rgb(179,179,179)" stroke-linejoin="round" d="M 1715,7939 L 1715,7789 "/>
 <path fill="none" stroke="rgb(179,179,179)" stroke-linejoin="round" d="M 1520,7939 L 1520,7789 "/>
 <path fill="none" stroke="rgb(179,179,179)" stroke-linejoin="round" d="M 1520,7939 L 1520,7789 "/>
 <path fill="none" stroke="rgb(179,179,179)" stroke-linejoin="round" d="M 1325,7939 L 1325,7789 "/>
 <path fill="none" stroke="rgb(179,179,179)" stroke-linejoin="round" d="M 1325,7939 L 1325,7789 "/>
 <path fill="none" stroke="rgb(179,179,179)" stroke-linejoin="round" d="M 1130,7939 L 1130,7789 "/>
 <path fill="none" stroke="rgb(179,179,179)" stroke-linejoin="round" d="M 1130,7939 L 1130,7789 "/>
 <path fill="none" stroke="rgb(179,179,179)" stroke-linejoin="round" d="M 935,7939 L 935,7789 "/>
 <path fill="none" stroke="rgb(179,179,179)" stroke-linejoin="round" d="M 935,7939 L 935,7789 "/>
 <path fill="none" stroke="rgb(179,179,179)" stroke-linejoin="round" d="M 740,7939 L 740,7789 "/>
 <path fill="none" stroke="rgb(179,179,179)" stroke-linejoin="round" d="M 740,7939 L 740,7789 "/>
 <path fill="none" stroke="rgb(179,179,179)" stroke-linejoin="round" d="M 740,7789 L 14984,7789 "/>
 <path fill="none" stroke="rgb(179,179,179)" stroke-linejoin="round" d="M 15134,7789 L 14984,7789 "/>
 <path fill="none" stroke="rgb(179,179,179)" stroke-linejoin="round" d="M 15134,7789 L 14984,7789 "/>
 <path fill="none" stroke="rgb(179,179,179)" stroke-linejoin="round" d="M 15134,7102 L 14984,7102 "/>
 <path fill="none" stroke="rgb(179,179,179)" stroke-linejoin="round" d="M 15134,7102 L 14984,7102 "/>
 <path fill="none" stroke="rgb(179,179,179)" stroke-linejoin="round" d="M 15134,6415 L 14984,6415 "/>
 <path fill="none" stroke="rgb(179,179,179)" stroke-linejoin="round" d="M 15134,6415 L 14984,6415 "/>
 <path fill="none" stroke="rgb(179,179,179)" stroke-linejoin="round" d="M 15134,5728 L 14984,5728 "/>
 <path fill="none" stroke="rgb(179,179,179)" stroke-linejoin="round" d="M 15134,5728 L 14984,5728 "/>
 <path fill="none" stroke="rgb(179,179,179)" stroke-linejoin="round" d="M 15134,5042 L 14984,5042 "/>
 <path fill="none" stroke="rgb(179,179,179)" stroke-linejoin="round" d="M 15134,5042 L 14984,5042 "/>
 <path fill="none" stroke="rgb(179,179,179)" stroke-linejoin="round" d="M 15134,4356 L 14984,4356 "/>
 <path fill="none" stroke="rgb(179,179,179)" stroke-linejoin="round" d="M 15134,4356 L 14984,4356 "/>
 <path fill="none" stroke="rgb(179,179,179)" stroke-linejoin="round" d="M 15134,3669 L 14984,3669 "/>
 <path fill="none" stroke="rgb(179,179,179)" stroke-linejoin="round" d="M 15134,3669 L 14984,3669 "/>
 <path fill="none" stroke="rgb(179,179,179)" stroke-linejoin="round" d="M 15134,2982 L 14984,2982 "/>
 <path fill="none" stroke="rgb(179,179,179)" stroke-linejoin="round" d="M 15134,2982 L 14984,2982 "/>
 <path fill="none" stroke="rgb(179,179,179)" stroke-linejoin="round" d="M 15134,2296 L 14984,2296 "/>
 <path fill="none" stroke="rgb(179,179,179)" stroke-linejoin="round" d="M 15134,2296 L 14984,2296 "/>
 <path fill="none" stroke="rgb(179,179,179)" stroke-linejoin="round" d="M 14984,7789 L 14984,2296 "/>
 <path fill="none" stroke="rgb(0,0,0)" stroke-width="20" stroke-linejoin="round" stroke-linecap="round" d="M 14984,2896 L 14788,4584 14593,3080 14398,5166 14203,5591 14008,5698 13813,4897 13618,4649 13422,3963 13227,6098 13032,5042 12837,6014 12642,5440 12447,5331 12252,5937 12056,5442 11861,6157 11666,4356 11471,4736 11276,6157 11081,5916 10886,5900 10690,3563 10495,6098 10300,5777 10105,5213 9910,4551 9715,5728 9520,5475 9325,5140 9129,5675 8934,4504 8739,2570 8544,5179 8349,4203 8154,5448 7960,5675 7764,4418 7569,4784 7374,6480 7179,6278 6984,4936 6789,5957 6594,5179 6398,5728 6203,5042 6008,4904 5813,5385 5618,6709 5423,4584 5228,6040 5033,6415 4837,4432 4642,5238 4447,5986 4252,6665 4057,5541 3862,5924 3667,5728 3471,6790 3276,6301 3081,6415 2886,6301 2691,5499 2496,6415 2301,6140 2105,3944 1910,6415 1715,5270 1520,6987 1325,5652 1130,3669 935,5666 740,6110 "/>
 <path fill="none" stroke="rgb(0,0,0)" stroke-width="100" stroke-linejoin="round" d="M 14593,4264 L 14398,4824 14203,4886 14008,5200 13813,4960 13618,5061 13422,4930 13227,5153 13032,5311 12837,5585 12642,5553 12447,5633 12252,5662 12056,5444 11861,5326 11666,5370 11471,5464 11276,5413 11081,5254 10886,5527 10690,5451 10495,5310 10300,5040 10105,5474 9910,5349 9715,5221 9520,5314 9325,5305 9129,4673 8934,4613 8739,4427 8544,4382 8349,4615 8154,4984 7960,4905 7764,5361 7569,5527 7374,5379 7179,5687 6984,5766 6789,5616 6594,5368 6398,5362 6203,5248 6008,5554 5813,5325 5618,5524 5423,5827 5228,5636 5033,5342 4837,5622 4642,5747 4447,5572 4252,5871 4057,5969 3862,6130 3667,6057 3471,6232 3276,6307 3081,6261 2886,6186 2691,6154 2496,5660 2301,5682 2105,5637 1910,5751 1715,5653 1520,5599 1325,5449 1130,5617 "/>
 <text class="SVGTextShape" transform="rotate(-44.9 14581 8750)"><tspan class="TextParagraph"><tspan class="TextPosition" x="14581" y="8750"><tspan font-family="Liberation Serif, serif" font-size="353px" font-weight="400" lengthAdjust="spacingAndGlyphs" textLength="687" fill="rgb(0,0,0)" stroke="none" style="white-space: pre">2021</tspan></tspan></tspan></text>
 <text class="SVGTextShape" transform="rotate(-44.9 13995 8750)"><tspan class="TextParagraph"><tspan class="TextPosition" x="13995" y="8750"><tspan font-family="Liberation Serif, serif" font-size="353px" font-weight="400" lengthAdjust="spacingAndGlyphs" textLength="687" fill="rgb(0,0,0)" stroke="none" style="white-space: pre">2018</tspan></tspan></tspan></text>
 <text class="SVGTextShape" transform="rotate(-44.9 13410 8750)"><tspan class="TextParagraph"><tspan class="TextPosition" x="13410" y="8750"><tspan font-family="Liberation Serif, serif" font-size="353px" font-weight="400" lengthAdjust="spacingAndGlyphs" textLength="687" fill="rgb(0,0,0)" stroke="none" style="white-space: pre">2015</tspan></tspan></tspan></text>
 <text class="SVGTextShape" transform="rotate(-44.9 12824 8750)"><tspan class="TextParagraph"><tspan class="TextPosition" x="12824" y="8750"><tspan font-family="Liberation Serif, serif" font-size="353px" font-weight="400" lengthAdjust="spacingAndGlyphs" textLength="687" fill="rgb(0,0,0)" stroke="none" style="white-space: pre">2012</tspan></tspan></tspan></text>
 <text class="SVGTextShape" transform="rotate(-44.9 12239 8750)"><tspan class="TextParagraph"><tspan class="TextPosition" x="12239" y="8750"><tspan font-family="Liberation Serif, serif" font-size="353px" font-weight="400" lengthAdjust="spacingAndGlyphs" textLength="687" fill="rgb(0,0,0)" stroke="none" style="white-space: pre">2009</tspan></tspan></tspan></text>
 <text class="SVGTextShape" transform="rotate(-44.9 11653 8750)"><tspan class="TextParagraph"><tspan class="TextPosition" x="11653" y="8750"><tspan font-family="Liberation Serif, serif" font-size="353px" font-weight="400" lengthAdjust="spacingAndGlyphs" textLength="687" fill="rgb(0,0,0)" stroke="none" style="white-space: pre">2006</tspan></tspan></tspan></text>
 <text class="SVGTextShape" transform="rotate(-44.9 11068 8750)"><tspan class="TextParagraph"><tspan class="TextPosition" x="11068" y="8750"><tspan font-family="Liberation Serif, serif" font-size="353px" font-weight="400" lengthAdjust="spacingAndGlyphs" textLength="687" fill="rgb(0,0,0)" stroke="none" style="white-space: pre">2003</tspan></tspan></tspan></text>
 <text class="SVGTextShape" transform="rotate(-44.9 10483 8750)"><tspan class="TextParagraph"><tspan class="TextPosition" x="10483" y="8750"><tspan font-family="Liberation Serif, serif" font-size="353px" font-weight="400" lengthAdjust="spacingAndGlyphs" textLength="687" fill="rgb(0,0,0)" stroke="none" style="white-space: pre">2000</tspan></tspan></tspan></text>
 <text class="SVGTextShape" transform="rotate(-44.9 9897 8750)"><tspan class="TextParagraph"><tspan class="TextPosition" x="9897" y="8750"><tspan font-family="Liberation Serif, serif" font-size="353px" font-weight="400" lengthAdjust="spacingAndGlyphs" textLength="687" fill="rgb(0,0,0)" stroke="none" style="white-space: pre">1997</tspan></tspan></tspan></text>
 <text class="SVGTextShape" transform="rotate(-44.9 9312 8750)"><tspan class="TextParagraph"><tspan class="TextPosition" x="9312" y="8750"><tspan font-family="Liberation Serif, serif" font-size="353px" font-weight="400" lengthAdjust="spacingAndGlyphs" textLength="687" fill="rgb(0,0,0)" stroke="none" style="white-space: pre">1994</tspan></tspan></tspan></text>
 <text class="SVGTextShape" transform="rotate(-44.9 8726 8750)"><tspan class="TextParagraph"><tspan class="TextPosition" x="8726" y="8750"><tspan font-family="Liberation Serif, serif" font-size="353px" font-weight="400" lengthAdjust="spacingAndGlyphs" textLength="687" fill="rgb(0,0,0)" stroke="none" style="white-space: pre">1991</tspan></tspan></tspan></text>
 <text class="SVGTextShape" transform="rotate(-44.9 8141 8750)"><tspan class="TextParagraph"><tspan class="TextPosition" x="8141" y="8750"><tspan font-family="Liberation Serif, serif" font-size="353px" font-weight="400" lengthAdjust="spacingAndGlyphs" textLength="687" fill="rgb(0,0,0)" stroke="none" style="white-space: pre">1988</tspan></tspan></tspan></text>
 <text class="SVGTextShape" transform="rotate(-44.9 7557 8750)"><tspan class="TextParagraph"><tspan class="TextPosition" x="7557" y="8750"><tspan font-family="Liberation Serif, serif" font-size="353px" font-weight="400" lengthAdjust="spacingAndGlyphs" textLength="687" fill="rgb(0,0,0)" stroke="none" style="white-space: pre">1985</tspan></tspan></tspan></text>
 <text class="SVGTextShape" transform="rotate(-44.9 6971 8750)"><tspan class="TextParagraph"><tspan class="TextPosition" x="6971" y="8750"><tspan font-family="Liberation Serif, serif" font-size="353px" font-weight="400" lengthAdjust="spacingAndGlyphs" textLength="687" fill="rgb(0,0,0)" stroke="none" style="white-space: pre">1982</tspan></tspan></tspan></text>
 <text class="SVGTextShape" transform="rotate(-44.9 6386 8750)"><tspan class="TextParagraph"><tspan class="TextPosition" x="6386" y="8750"><tspan font-family="Liberation Serif, serif" font-size="353px" font-weight="400" lengthAdjust="spacingAndGlyphs" textLength="687" fill="rgb(0,0,0)" stroke="none" style="white-space: pre">1979</tspan></tspan></tspan></text>
 <text class="SVGTextShape" transform="rotate(-44.9 5800 8750)"><tspan class="TextParagraph"><tspan class="TextPosition" x="5800" y="8750"><tspan font-family="Liberation Serif, serif" font-size="353px" font-weight="400" lengthAdjust="spacingAndGlyphs" textLength="687" fill="rgb(0,0,0)" stroke="none" style="white-space: pre">1976</tspan></tspan></tspan></text>
 <text class="SVGTextShape" transform="rotate(-44.9 5215 8750)"><tspan class="TextParagraph"><tspan class="TextPosition" x="5215" y="8750"><tspan font-family="Liberation Serif, serif" font-size="353px" font-weight="400" lengthAdjust="spacingAndGlyphs" textLength="687" fill="rgb(0,0,0)" stroke="none" style="white-space: pre">1973</tspan></tspan></tspan></text>
 <text class="SVGTextShape" transform="rotate(-44.9 4630 8750)"><tspan class="TextParagraph"><tspan class="TextPosition" x="4630" y="8750"><tspan font-family="Liberation Serif, serif" font-size="353px" font-weight="400" lengthAdjust="spacingAndGlyphs" textLength="687" fill="rgb(0,0,0)" stroke="none" style="white-space: pre">1970</tspan></tspan></tspan></text>
 <text class="SVGTextShape" transform="rotate(-44.9 4044 8750)"><tspan class="TextParagraph"><tspan class="TextPosition" x="4044" y="8750"><tspan font-family="Liberation Serif, serif" font-size="353px" font-weight="400" lengthAdjust="spacingAndGlyphs" textLength="687" fill="rgb(0,0,0)" stroke="none" style="white-space: pre">1967</tspan></tspan></tspan></text>
 <text class="SVGTextShape" transform="rotate(-44.9 3459 8750)"><tspan class="TextParagraph"><tspan class="TextPosition" x="3459" y="8750"><tspan font-family="Liberation Serif, serif" font-size="353px" font-weight="400" lengthAdjust="spacingAndGlyphs" textLength="687" fill="rgb(0,0,0)" stroke="none" style="white-space: pre">1964</tspan></tspan></tspan></text>
 <text class="SVGTextShape" transform="rotate(-44.9 2873 8750)"><tspan class="TextParagraph"><tspan class="TextPosition" x="2873" y="8750"><tspan font-family="Liberation Serif, serif" font-size="353px" font-weight="400" lengthAdjust="spacingAndGlyphs" textLength="687" fill="rgb(0,0,0)" stroke="none" style="white-space: pre">1961</tspan></tspan></tspan></text>
 <text class="SVGTextShape" transform="rotate(-44.9 2288 8750)"><tspan class="TextParagraph"><tspan class="TextPosition" x="2288" y="8750"><tspan font-family="Liberation Serif, serif" font-size="353px" font-weight="400" lengthAdjust="spacingAndGlyphs" textLength="687" fill="rgb(0,0,0)" stroke="none" style="white-space: pre">1958</tspan></tspan></tspan></text>
 <text class="SVGTextShape" transform="rotate(-44.9 1702 8750)"><tspan class="TextParagraph"><tspan class="TextPosition" x="1702" y="8750"><tspan font-family="Liberation Serif, serif" font-size="353px" font-weight="400" lengthAdjust="spacingAndGlyphs" textLength="687" fill="rgb(0,0,0)" stroke="none" style="white-space: pre">1955</tspan></tspan></tspan></text>
 <text class="SVGTextShape" transform="rotate(-44.9 1117 8750)"><tspan class="TextParagraph"><tspan class="TextPosition" x="1117" y="8750"><tspan font-family="Liberation Serif, serif" font-size="353px" font-weight="400" lengthAdjust="spacingAndGlyphs" textLength="687" fill="rgb(0,0,0)" stroke="none" style="white-space: pre">1952</tspan></tspan></tspan></text>
 <text class="SVGTextShape" transform="rotate(-44.9 532 8750)"><tspan class="TextParagraph"><tspan class="TextPosition" x="532" y="8750"><tspan font-family="Liberation Serif, serif" font-size="353px" font-weight="400" lengthAdjust="spacingAndGlyphs" textLength="687" fill="rgb(0,0,0)" stroke="none" style="white-space: pre">1949</tspan></tspan></tspan></text>
 <text class="SVGTextShape"><tspan class="TextParagraph"><tspan class="TextPosition" x="15234" y="7910"><tspan font-family="Liberation Serif, serif" font-size="353px" font-weight="400" lengthAdjust="spacingAndGlyphs" textLength="429" fill="rgb(0,0,0)" stroke="none" style="white-space: pre">0.0</tspan></tspan></tspan></text>
 <text class="SVGTextShape"><tspan class="TextParagraph"><tspan class="TextPosition" x="15234" y="7223"><tspan font-family="Liberation Serif, serif" font-size="353px" font-weight="400" lengthAdjust="spacingAndGlyphs" textLength="429" fill="rgb(0,0,0)" stroke="none" style="white-space: pre">0.5</tspan></tspan></tspan></text>
 <text class="SVGTextShape"><tspan class="TextParagraph"><tspan class="TextPosition" x="15234" y="6536"><tspan font-family="Liberation Serif, serif" font-size="353px" font-weight="400" lengthAdjust="spacingAndGlyphs" textLength="429" fill="rgb(0,0,0)" stroke="none" style="white-space: pre">1.0</tspan></tspan></tspan></text>
 <text class="SVGTextShape"><tspan class="TextParagraph"><tspan class="TextPosition" x="15234" y="5849"><tspan font-family="Liberation Serif, serif" font-size="353px" font-weight="400" lengthAdjust="spacingAndGlyphs" textLength="429" fill="rgb(0,0,0)" stroke="none" style="white-space: pre">1.5</tspan></tspan></tspan></text>
 <text class="SVGTextShape"><tspan class="TextParagraph"><tspan class="TextPosition" x="15234" y="5163"><tspan font-family="Liberation Serif, serif" font-size="353px" font-weight="400" lengthAdjust="spacingAndGlyphs" textLength="429" fill="rgb(0,0,0)" stroke="none" style="white-space: pre">2.0</tspan></tspan></tspan></text>
 <text class="SVGTextShape"><tspan class="TextParagraph"><tspan class="TextPosition" x="15234" y="4477"><tspan font-family="Liberation Serif, serif" font-size="353px" font-weight="400" lengthAdjust="spacingAndGlyphs" textLength="429" fill="rgb(0,0,0)" stroke="none" style="white-space: pre">2.5</tspan></tspan></tspan></text>
 <text class="SVGTextShape"><tspan class="TextParagraph"><tspan class="TextPosition" x="15234" y="3790"><tspan font-family="Liberation Serif, serif" font-size="353px" font-weight="400" lengthAdjust="spacingAndGlyphs" textLength="429" fill="rgb(0,0,0)" stroke="none" style="white-space: pre">3.0</tspan></tspan></tspan></text>
 <text class="SVGTextShape"><tspan class="TextParagraph"><tspan class="TextPosition" x="15234" y="3103"><tspan font-family="Liberation Serif, serif" font-size="353px" font-weight="400" lengthAdjust="spacingAndGlyphs" textLength="429" fill="rgb(0,0,0)" stroke="none" style="white-space: pre">3.5</tspan></tspan></tspan></text>
 <text class="SVGTextShape"><tspan class="TextParagraph"><tspan class="TextPosition" x="15234" y="2417"><tspan font-family="Liberation Serif, serif" font-size="353px" font-weight="400" lengthAdjust="spacingAndGlyphs" textLength="429" fill="rgb(0,0,0)" stroke="none" style="white-space: pre">4.0</tspan></tspan></tspan></text>
 <text class="SVGTextShape"><tspan class="TextParagraph"><tspan class="TextPosition" x="3735" y="839"><tspan font-family="Liberation Serif, serif" font-size="459px" font-weight="400" lengthAdjust="spacingAndGlyphs" textLength="8503" fill="rgb(0,0,0)" stroke="none" style="white-space: pre">Male deaths from assault for each female death</tspan></tspan></tspan></text>
 <text class="SVGTextShape"><tspan class="TextParagraph"><tspan class="TextPosition" x="6715" y="1724"><tspan font-family="Liberation Serif, serif" font-size="388px" font-weight="400" lengthAdjust="spacingAndGlyphs" textLength="2545" fill="rgb(0,0,0)" stroke="none" style="white-space: pre">moving average</tspan></tspan></tspan></text>
</svg>