<?xml version="1.0" encoding="UTF-8"?>
<!DOCTYPE svg PUBLIC "-//W3C//DTD SVG 1.1//EN" "http://www.w3.org/Graphics/SVG/1.1/DTD/svg11.dtd">
<svg width="160mm" height="90mm" viewBox="0 0 16000 9000" version="1.1" xmlns="http://www.w3.org/2000/svg" xmlns:xlink="http://www.w3.org/1999/xlink" stroke-width="28.222" stroke-linejoin="round" xml:space="preserve">
 <path fill="rgb(255,255,255)" stroke="none" d="M 7987,8986 L -13,8986 -13,-13 15986,-13 15986,8986 7987,8986 Z "/>
 <path fill="none" stroke="rgb(179,179,179)" stroke-linejoin="round" d="M 8257,6951 L 990,6951 990,2324 15525,2324 15525,6951 8257,6951 Z "/>
 <path fill="none" stroke="rgb(179,179,179)" stroke-linejoin="round" d="M 15525,6950 L 990,6950 "/>
 <path fill="none" stroke="rgb(179,179,179)" stroke-linejoin="round" d="M 15525,6178 L 990,6178 "/>
 <path fill="none" stroke="rgb(179,179,179)" stroke-linejoin="round" d="M 15525,5407 L 990,5407 "/>
 <path fill="none" stroke="rgb(179,179,179)" stroke-linejoin="round" d="M 15525,4636 L 990,4636 "/>
 <path fill="none" stroke="rgb(179,179,179)" stroke-linejoin="round" d="M 15525,3865 L 990,3865 "/>
 <path fill="none" stroke="rgb(179,179,179)" stroke-linejoin="round" d="M 15525,3094 L 990,3094 "/>
 <path fill="none" stroke="rgb(179,179,179)" stroke-linejoin="round" d="M 15525,2323 L 990,2323 "/>
 <path fill="none" stroke="rgb(179,179,179)" stroke-linejoin="round" d="M 990,7100 L 990,6950 "/>
 <path fill="none" stroke="rgb(179,179,179)" stroke-linejoin="round" d="M 990,7100 L 990,6950 "/>
 <path fill="none" stroke="rgb(179,179,179)" stroke-linejoin="round" d="M 1622,7100 L 1622,6950 "/>
 <path fill="none" stroke="rgb(179,179,179)" stroke-linejoin="round" d="M 1622,7100 L 1622,6950 "/>
 <path fill="none" stroke="rgb(179,179,179)" stroke-linejoin="round" d="M 2254,7100 L 2254,6950 "/>
 <path fill="none" stroke="rgb(179,179,179)" stroke-linejoin="round" d="M 2254,7100 L 2254,6950 "/>
 <path fill="none" stroke="rgb(179,179,179)" stroke-linejoin="round" d="M 2886,7100 L 2886,6950 "/>
 <path fill="none" stroke="rgb(179,179,179)" stroke-linejoin="round" d="M 2886,7100 L 2886,6950 "/>
 <path fill="none" stroke="rgb(179,179,179)" stroke-linejoin="round" d="M 3518,7100 L 3518,6950 "/>
 <path fill="none" stroke="rgb(179,179,179)" stroke-linejoin="round" d="M 3518,7100 L 3518,6950 "/>
 <path fill="none" stroke="rgb(179,179,179)" stroke-linejoin="round" d="M 4150,7100 L 4150,6950 "/>
 <path fill="none" stroke="rgb(179,179,179)" stroke-linejoin="round" d="M 4150,7100 L 4150,6950 "/>
 <path fill="none" stroke="rgb(179,179,179)" stroke-linejoin="round" d="M 4782,7100 L 4782,6950 "/>
 <path fill="none" stroke="rgb(179,179,179)" stroke-linejoin="round" d="M 4782,7100 L 4782,6950 "/>
 <path fill="none" stroke="rgb(179,179,179)" stroke-linejoin="round" d="M 5414,7100 L 5414,6950 "/>
 <path fill="none" stroke="rgb(179,179,179)" stroke-linejoin="round" d="M 5414,7100 L 5414,6950 "/>
 <path fill="none" stroke="rgb(179,179,179)" stroke-linejoin="round" d="M 6046,7100 L 6046,6950 "/>
 <path fill="none" stroke="rgb(179,179,179)" stroke-linejoin="round" d="M 6046,7100 L 6046,6950 "/>
 <path fill="none" stroke="rgb(179,179,179)" stroke-linejoin="round" d="M 6677,7100 L 6677,6950 "/>
 <path fill="none" stroke="rgb(179,179,179)" stroke-linejoin="round" d="M 6677,7100 L 6677,6950 "/>
 <path fill="none" stroke="rgb(179,179,179)" stroke-linejoin="round" d="M 7310,7100 L 7310,6950 "/>
 <path fill="none" stroke="rgb(179,179,179)" stroke-linejoin="round" d="M 7310,7100 L 7310,6950 "/>
 <path fill="none" stroke="rgb(179,179,179)" stroke-linejoin="round" d="M 7942,7100 L 7942,6950 "/>
 <path fill="none" stroke="rgb(179,179,179)" stroke-linejoin="round" d="M 7942,7100 L 7942,6950 "/>
 <path fill="none" stroke="rgb(179,179,179)" stroke-linejoin="round" d="M 8573,7100 L 8573,6950 "/>
 <path fill="none" stroke="rgb(179,179,179)" stroke-linejoin="round" d="M 8573,7100 L 8573,6950 "/>
 <path fill="none" stroke="rgb(179,179,179)" stroke-linejoin="round" d="M 9205,7100 L 9205,6950 "/>
 <path fill="none" stroke="rgb(179,179,179)" stroke-linejoin="round" d="M 9205,7100 L 9205,6950 "/>
 <path fill="none" stroke="rgb(179,179,179)" stroke-linejoin="round" d="M 9837,7100 L 9837,6950 "/>
 <path fill="none" stroke="rgb(179,179,179)" stroke-linejoin="round" d="M 9837,7100 L 9837,6950 "/>
 <path fill="none" stroke="rgb(179,179,179)" stroke-linejoin="round" d="M 10469,7100 L 10469,6950 "/>
 <path fill="none" stroke="rgb(179,179,179)" stroke-linejoin="round" d="M 10469,7100 L 10469,6950 "/>
 <path fill="none" stroke="rgb(179,179,179)" stroke-linejoin="round" d="M 11101,7100 L 11101,6950 "/>
 <path fill="none" stroke="rgb(179,179,179)" stroke-linejoin="round" d="M 11101,7100 L 11101,6950 "/>
 <path fill="none" stroke="rgb(179,179,179)" stroke-linejoin="round" d="M 11733,7100 L 11733,6950 "/>
 <path fill="none" stroke="rgb(179,179,179)" stroke-linejoin="round" d="M 11733,7100 L 11733,6950 "/>
 <path fill="none" stroke="rgb(179,179,179)" stroke-linejoin="round" d="M 12364,7100 L 12364,6950 "/>
 <path fill="none" stroke="rgb(179,179,179)" stroke-linejoin="round" d="M 12364,7100 L 12364,6950 "/>
 <path fill="none" stroke="rgb(179,179,179)" stroke-linejoin="round" d="M 12997,7100 L 12997,6950 "/>
 <path fill="none" stroke="rgb(179,179,179)" stroke-linejoin="round" d="M 12997,7100 L 12997,6950 "/>
 <path fill="none" stroke="rgb(179,179,179)" stroke-linejoin="round" d="M 13629,7100 L 13629,6950 "/>
 <path fill="none" stroke="rgb(179,179,179)" stroke-linejoin="round" d="M 13629,7100 L 13629,6950 "/>
 <path fill="none" stroke="rgb(179,179,179)" stroke-linejoin="round" d="M 14261,7100 L 14261,6950 "/>
 <path fill="none" stroke="rgb(179,179,179)" stroke-linejoin="round" d="M 14261,7100 L 14261,6950 "/>
 <path fill="none" stroke="rgb(179,179,179)" stroke-linejoin="round" d="M 14893,7100 L 14893,6950 "/>
 <path fill="none" stroke="rgb(179,179,179)" stroke-linejoin="round" d="M 14893,7100 L 14893,6950 "/>
 <path fill="none" stroke="rgb(179,179,179)" stroke-linejoin="round" d="M 15525,7100 L 15525,6950 "/>
 <path fill="none" stroke="rgb(179,179,179)" stroke-linejoin="round" d="M 15525,7100 L 15525,6950 "/>
 <path fill="none" stroke="rgb(179,179,179)" stroke-linejoin="round" d="M 990,6950 L 15525,6950 "/>
 <path fill="none" stroke="rgb(179,179,179)" stroke-linejoin="round" d="M 840,6950 L 990,6950 "/>
 <path fill="none" stroke="rgb(179,179,179)" stroke-linejoin="round" d="M 840,6950 L 990,6950 "/>
 <path fill="none" stroke="rgb(179,179,179)" stroke-linejoin="round" d="M 840,6178 L 990,6178 "/>
 <path fill="none" stroke="rgb(179,179,179)" stroke-linejoin="round" d="M 840,6178 L 990,6178 "/>
 <path fill="none" stroke="rgb(179,179,179)" stroke-linejoin="round" d="M 840,5407 L 990,5407 "/>
 <path fill="none" stroke="rgb(179,179,179)" stroke-linejoin="round" d="M 840,5407 L 990,5407 "/>
 <path fill="none" stroke="rgb(179,179,179)" stroke-linejoin="round" d="M 840,4636 L 990,4636 "/>
 <path fill="none" stroke="rgb(179,179,179)" stroke-linejoin="round" d="M 840,4636 L 990,4636 "/>
 <path fill="none" stroke="rgb(179,179,179)" stroke-linejoin="round" d="M 840,3865 L 990,3865 "/>
 <path fill="none" stroke="rgb(179,179,179)" stroke-linejoin="round" d="M 840,3865 L 990,3865 "/>
 <path fill="none" stroke="rgb(179,179,179)" stroke-linejoin="round" d="M 840,3094 L 990,3094 "/>
 <path fill="none" stroke="rgb(179,179,179)" stroke-linejoin="round" d="M 840,3094 L 990,3094 "/>
 <path fill="none" stroke="rgb(179,179,179)" stroke-linejoin="round" d="M 840,2323 L 990,2323 "/>
 <path fill="none" stroke="rgb(179,179,179)" stroke-linejoin="round" d="M 840,2323 L 990,2323 "/>
 <path fill="none" stroke="rgb(179,179,179)" stroke-linejoin="round" d="M 990,6950 L 990,2323 "/>
 <path fill="none" stroke="rgb(0,69,134)" stroke-width="80" stroke-linejoin="round" d="M 990,4203 L 1622,4048 2254,3935 2886,3659 3518,3818 4150,2808 4782,3885 5414,3908 6046,2551 6678,2862 7310,3907 7942,3455 8573,3211 9205,2642 9837,3865 10469,3351 11101,3587 11733,3846 12365,3848 12997,3865 13629,4244 14261,4350 14893,4232 15525,4198 "/>
 <path fill="none" stroke="rgb(255,66,14)" stroke-width="80" stroke-linejoin="round" d="M 990,5889 L 1622,5985 2254,6108 2886,5278 3518,5253 4150,6038 4782,5696 5414,5985 6046,5535 6678,5561 7310,5985 7942,5407 8573,5889 9205,5098 9837,5407 10469,5278 11101,5627 11733,5715 12365,5407 12997,4208 13629,5150 "/>
 <text class="SVGTextShape" transform="rotate(-44.9 532 7967)"><tspan class="TextParagraph"><tspan class="TextPosition" x="532" y="7967"><tspan font-family="Liberation Sans, sans-serif" font-size="353px" font-weight="400" lengthAdjust="spacingAndGlyphs" textLength="765" fill="rgb(0,0,0)" stroke="none" style="white-space: pre">2000</tspan></tspan></tspan></text>
 <text class="SVGTextShape" transform="rotate(-44.9 1164 7967)"><tspan class="TextParagraph"><tspan class="TextPosition" x="1164" y="7967"><tspan font-family="Liberation Sans, sans-serif" font-size="353px" font-weight="400" lengthAdjust="spacingAndGlyphs" textLength="765" fill="rgb(0,0,0)" stroke="none" style="white-space: pre">2001</tspan></tspan></tspan></text>
 <text class="SVGTextShape" transform="rotate(-44.9 1796 7967)"><tspan class="TextParagraph"><tspan class="TextPosition" x="1796" y="7967"><tspan font-family="Liberation Sans, sans-serif" font-size="353px" font-weight="400" lengthAdjust="spacingAndGlyphs" textLength="765" fill="rgb(0,0,0)" stroke="none" style="white-space: pre">2002</tspan></tspan></tspan></text>
 <text class="SVGTextShape" transform="rotate(-44.9 2428 7967)"><tspan class="TextParagraph"><tspan class="TextPosition" x="2428" y="7967"><tspan font-family="Liberation Sans, sans-serif" font-size="353px" font-weight="400" lengthAdjust="spacingAndGlyphs" textLength="765" fill="rgb(0,0,0)" stroke="none" style="white-space: pre">2003</tspan></tspan></tspan></text>
 <text class="SVGTextShape" transform="rotate(-44.9 3060 7967)"><tspan class="TextParagraph"><tspan class="TextPosition" x="3060" y="7967"><tspan font-family="Liberation Sans, sans-serif" font-size="353px" font-weight="400" lengthAdjust="spacingAndGlyphs" textLength="765" fill="rgb(0,0,0)" stroke="none" style="white-space: pre">2004</tspan></tspan></tspan></text>
 <text class="SVGTextShape" transform="rotate(-44.9 3692 7967)"><tspan class="TextParagraph"><tspan class="TextPosition" x="3692" y="7967"><tspan font-family="Liberation Sans, sans-serif" font-size="353px" font-weight="400" lengthAdjust="spacingAndGlyphs" textLength="765" fill="rgb(0,0,0)" stroke="none" style="white-space: pre">2005</tspan></tspan></tspan></text>
 <text class="SVGTextShape" transform="rotate(-44.9 4324 7967)"><tspan class="TextParagraph"><tspan class="TextPosition" x="4324" y="7967"><tspan font-family="Liberation Sans, sans-serif" font-size="353px" font-weight="400" lengthAdjust="spacingAndGlyphs" textLength="765" fill="rgb(0,0,0)" stroke="none" style="white-space: pre">2006</tspan></tspan></tspan></text>
 <text class="SVGTextShape" transform="rotate(-44.9 4956 7967)"><tspan class="TextParagraph"><tspan class="TextPosition" x="4956" y="7967"><tspan font-family="Liberation Sans, sans-serif" font-size="353px" font-weight="400" lengthAdjust="spacingAndGlyphs" textLength="765" fill="rgb(0,0,0)" stroke="none" style="white-space: pre">2007</tspan></tspan></tspan></text>
 <text class="SVGTextShape" transform="rotate(-44.9 5588 7967)"><tspan class="TextParagraph"><tspan class="TextPosition" x="5588" y="7967"><tspan font-family="Liberation Sans, sans-serif" font-size="353px" font-weight="400" lengthAdjust="spacingAndGlyphs" textLength="765" fill="rgb(0,0,0)" stroke="none" style="white-space: pre">2008</tspan></tspan></tspan></text>
 <text class="SVGTextShape" transform="rotate(-44.9 6219 7967)"><tspan class="TextParagraph"><tspan class="TextPosition" x="6219" y="7967"><tspan font-family="Liberation Sans, sans-serif" font-size="353px" font-weight="400" lengthAdjust="spacingAndGlyphs" textLength="765" fill="rgb(0,0,0)" stroke="none" style="white-space: pre">2009</tspan></tspan></tspan></text>
 <text class="SVGTextShape" transform="rotate(-44.9 6852 7967)"><tspan class="TextParagraph"><tspan class="TextPosition" x="6852" y="7967"><tspan font-family="Liberation Sans, sans-serif" font-size="353px" font-weight="400" lengthAdjust="spacingAndGlyphs" textLength="765" fill="rgb(0,0,0)" stroke="none" style="white-space: pre">2010</tspan></tspan></tspan></text>
 <text class="SVGTextShape" transform="rotate(-44.9 7484 7967)"><tspan class="TextParagraph"><tspan class="TextPosition" x="7484" y="7967"><tspan font-family="Liberation Sans, sans-serif" font-size="353px" font-weight="400" lengthAdjust="spacingAndGlyphs" textLength="765" fill="rgb(0,0,0)" stroke="none" style="white-space: pre">2011</tspan></tspan></tspan></text>
 <text class="SVGTextShape" transform="rotate(-44.9 8115 7967)"><tspan class="TextParagraph"><tspan class="TextPosition" x="8115" y="7967"><tspan font-family="Liberation Sans, sans-serif" font-size="353px" font-weight="400" lengthAdjust="spacingAndGlyphs" textLength="765" fill="rgb(0,0,0)" stroke="none" style="white-space: pre">2012</tspan></tspan></tspan></text>
 <text class="SVGTextShape" transform="rotate(-44.9 8747 7967)"><tspan class="TextParagraph"><tspan class="TextPosition" x="8747" y="7967"><tspan font-family="Liberation Sans, sans-serif" font-size="353px" font-weight="400" lengthAdjust="spacingAndGlyphs" textLength="765" fill="rgb(0,0,0)" stroke="none" style="white-space: pre">2013</tspan></tspan></tspan></text>
 <text class="SVGTextShape" transform="rotate(-44.9 9379 7967)"><tspan class="TextParagraph"><tspan class="TextPosition" x="9379" y="7967"><tspan font-family="Liberation Sans, sans-serif" font-size="353px" font-weight="400" lengthAdjust="spacingAndGlyphs" textLength="765" fill="rgb(0,0,0)" stroke="none" style="white-space: pre">2014</tspan></tspan></tspan></text>
 <text class="SVGTextShape" transform="rotate(-44.9 10011 7967)"><tspan class="TextParagraph"><tspan class="TextPosition" x="10011" y="7967"><tspan font-family="Liberation Sans, sans-serif" font-size="353px" font-weight="400" lengthAdjust="spacingAndGlyphs" textLength="765" fill="rgb(0,0,0)" stroke="none" style="white-space: pre">2015</tspan></tspan></tspan></text>
 <text class="SVGTextShape" transform="rotate(-44.9 10643 7967)"><tspan class="TextParagraph"><tspan class="TextPosition" x="10643" y="7967"><tspan font-family="Liberation Sans, sans-serif" font-size="353px" font-weight="400" lengthAdjust="spacingAndGlyphs" textLength="765" fill="rgb(0,0,0)" stroke="none" style="white-space: pre">2016</tspan></tspan></tspan></text>
 <text class="SVGTextShape" transform="rotate(-44.9 11275 7967)"><tspan class="TextParagraph"><tspan class="TextPosition" x="11275" y="7967"><tspan font-family="Liberation Sans, sans-serif" font-size="353px" font-weight="400" lengthAdjust="spacingAndGlyphs" textLength="765" fill="rgb(0,0,0)" stroke="none" style="white-space: pre">2017</tspan></tspan></tspan></text>
 <text class="SVGTextShape" transform="rotate(-44.9 11906 7967)"><tspan class="TextParagraph"><tspan class="TextPosition" x="11906" y="7967"><tspan font-family="Liberation Sans, sans-serif" font-size="353px" font-weight="400" lengthAdjust="spacingAndGlyphs" textLength="765" fill="rgb(0,0,0)" stroke="none" style="white-space: pre">2018</tspan></tspan></tspan></text>
 <text class="SVGTextShape" transform="rotate(-44.9 12539 7967)"><tspan class="TextParagraph"><tspan class="TextPosition" x="12539" y="7967"><tspan font-family="Liberation Sans, sans-serif" font-size="353px" font-weight="400" lengthAdjust="spacingAndGlyphs" textLength="765" fill="rgb(0,0,0)" stroke="none" style="white-space: pre">2019</tspan></tspan></tspan></text>
 <text class="SVGTextShape" transform="rotate(-44.9 13171 7967)"><tspan class="TextParagraph"><tspan class="TextPosition" x="13171" y="7967"><tspan font-family="Liberation Sans, sans-serif" font-size="353px" font-weight="400" lengthAdjust="spacingAndGlyphs" textLength="765" fill="rgb(0,0,0)" stroke="none" style="white-space: pre">2020</tspan></tspan></tspan></text>
 <text class="SVGTextShape" transform="rotate(-44.9 13803 7967)"><tspan class="TextParagraph"><tspan class="TextPosition" x="13803" y="7967"><tspan font-family="Liberation Sans, sans-serif" font-size="353px" font-weight="400" lengthAdjust="spacingAndGlyphs" textLength="765" fill="rgb(0,0,0)" stroke="none" style="white-space: pre">2021</tspan></tspan></tspan></text>
 <text class="SVGTextShape" transform="rotate(-44.9 14435 7967)"><tspan class="TextParagraph"><tspan class="TextPosition" x="14435" y="7967"><tspan font-family="Liberation Sans, sans-serif" font-size="353px" font-weight="400" lengthAdjust="spacingAndGlyphs" textLength="765" fill="rgb(0,0,0)" stroke="none" style="white-space: pre">2022</tspan></tspan></tspan></text>
 <text class="SVGTextShape" transform="rotate(-44.9 15067 7967)"><tspan class="TextParagraph"><tspan class="TextPosition" x="15067" y="7967"><tspan font-family="Liberation Sans, sans-serif" font-size="353px" font-weight="400" lengthAdjust="spacingAndGlyphs" textLength="765" fill="rgb(0,0,0)" stroke="none" style="white-space: pre">2023</tspan></tspan></tspan></text>
 <text class="SVGTextShape"><tspan class="TextParagraph"><tspan class="TextPosition" x="549" y="7071"><tspan font-family="Liberation Sans, sans-serif" font-size="353px" font-weight="400" lengthAdjust="spacingAndGlyphs" textLength="191" fill="rgb(0,0,0)" stroke="none" style="white-space: pre">0</tspan></tspan></tspan></text>
 <text class="SVGTextShape"><tspan class="TextParagraph"><tspan class="TextPosition" x="549" y="6299"><tspan font-family="Liberation Sans, sans-serif" font-size="353px" font-weight="400" lengthAdjust="spacingAndGlyphs" textLength="191" fill="rgb(0,0,0)" stroke="none" style="white-space: pre">1</tspan></tspan></tspan></text>
 <text class="SVGTextShape"><tspan class="TextParagraph"><tspan class="TextPosition" x="549" y="5528"><tspan font-family="Liberation Sans, sans-serif" font-size="353px" font-weight="400" lengthAdjust="spacingAndGlyphs" textLength="191" fill="rgb(0,0,0)" stroke="none" style="white-space: pre">2</tspan></tspan></tspan></text>
 <text class="SVGTextShape"><tspan class="TextParagraph"><tspan class="TextPosition" x="549" y="4757"><tspan font-family="Liberation Sans, sans-serif" font-size="353px" font-weight="400" lengthAdjust="spacingAndGlyphs" textLength="191" fill="rgb(0,0,0)" stroke="none" style="white-space: pre">3</tspan></tspan></tspan></text>
 <text class="SVGTextShape"><tspan class="TextParagraph"><tspan class="TextPosition" x="549" y="3986"><tspan font-family="Liberation Sans, sans-serif" font-size="353px" font-weight="400" lengthAdjust="spacingAndGlyphs" textLength="191" fill="rgb(0,0,0)" stroke="none" style="white-space: pre">4</tspan></tspan></tspan></text>
 <text class="SVGTextShape"><tspan class="TextParagraph"><tspan class="TextPosition" x="549" y="3215"><tspan font-family="Liberation Sans, sans-serif" font-size="353px" font-weight="400" lengthAdjust="spacingAndGlyphs" textLength="191" fill="rgb(0,0,0)" stroke="none" style="white-space: pre">5</tspan></tspan></tspan></text>
 <text class="SVGTextShape"><tspan class="TextParagraph"><tspan class="TextPosition" x="549" y="2444"><tspan font-family="Liberation Sans, sans-serif" font-size="353px" font-weight="400" lengthAdjust="spacingAndGlyphs" textLength="191" fill="rgb(0,0,0)" stroke="none" style="white-space: pre">6</tspan></tspan></tspan></text>
 <text class="SVGTextShape"><tspan class="TextParagraph"><tspan class="TextPosition" x="4988" y="839"><tspan font-family="Liberation Sans, sans-serif" font-size="459px" font-weight="400" lengthAdjust="spacingAndGlyphs" textLength="5999" fill="rgb(0,0,0)" stroke="none" style="white-space: pre">Serious assaults, male/female</tspan></tspan></tspan></text>
 <text class="SVGTextShape"><tspan class="TextParagraph"><tspan class="TextPosition" x="4414" y="1749"><tspan font-family="Liberation Sans, sans-serif" font-size="388px" font-weight="400" lengthAdjust="spacingAndGlyphs" textLength="7146" fill="rgb(0,0,0)" stroke="none" style="white-space: pre">Source: Stats NZ Aotearia Data Explorer</tspan></tspan></tspan></text>
 <path fill="none" stroke="rgb(0,69,134)" stroke-width="80" stroke-linejoin="round" d="M 5219,8685 L 6019,8685 "/>
 <path fill="none" stroke="rgb(255,66,14)" stroke-width="80" stroke-linejoin="round" d="M 9201,8685 L 10001,8685 "/>
 <text class="SVGTextShape"><tspan class="TextParagraph"><tspan class="TextPosition" x="6119" y="8805"><tspan font-family="Liberation Sans, sans-serif" font-size="353px" font-weight="400" lengthAdjust="spacingAndGlyphs" textLength="2848" fill="rgb(0,0,0)" stroke="none" style="white-space: pre">Non-fatal  assaults</tspan></tspan></tspan></text>
 <text class="SVGTextShape"><tspan class="TextParagraph"><tspan class="TextPosition" x="10101" y="8805"><tspan font-family="Liberation Sans, sans-serif" font-size="353px" font-weight="400" lengthAdjust="spacingAndGlyphs" textLength="650" fill="rgb(0,0,0)" stroke="none" style="white-space: pre">fatal</tspan></tspan></tspan></text>
</svg>